<?xml version="1.0"?>
<svg xmlns="http://www.w3.org/2000/svg" height="512px" viewBox="1 -34 511.99988 511" width="512px"><path d="m507.605469 359.671875-164.378907-164.378906c-10.609374-10.609375-24.714843-16.453125-39.71875-16.453125-9.863281 0-19.332031 2.539062-27.679687 7.28125l-14.089844-14.085938c45.292969-23.292968 76.34375-70.515625 76.34375-124.851562 0-25.742188-20.941406-46.683594-46.683593-46.683594h-276.398438c-8.285156 0-15 6.714844-15 15v156.976562c0 8.285157 6.714844 15 15 15h151.148438l-19.433594 38.875c-6.671875 13.339844-5.972656 28.882813 1.871094 41.570313 7.839843 12.6875 21.429687 20.265625 36.34375 20.265625 14.917968 0 28.503906-7.574219 36.347656-20.265625 7.84375-12.6875 8.542968-28.230469 1.871094-41.570313l-19.503907-39.007812c9.320313-.382812 18.40625-1.679688 27.175781-3.804688l23.796876 23.796876c-4.742188 8.347656-7.28125 17.816406-7.28125 27.679687 0 15.003906 5.84375 29.109375 16.453124 39.71875l164.378907 164.378906c2.929687 2.929688 6.769531 4.394531 10.605469 4.394531 3.839843 0 7.679687-1.464843 10.609374-4.394531l58.226563-58.226562c5.855469-5.859375 5.855469-15.355469-.003906-21.214844zm-347.933594-329.171875h101.761719l-7.359375 15.296875c-4.980469 10.359375-15.628907 17.050781-27.125 17.050781h-67.277344zm-129.671875 0h99.671875v47.347656c0 8.285156 6.714844 15 15 15h82.277344c22.953125 0 44.214843-13.363281 54.160156-34.050781l13.460937-27.988281c7.6875 1.488281 13.511719 8.257812 13.511719 16.375 0 60.8125-49.476562 110.292968-110.292969 110.292968h-167.789062zm165.757812 221.648438c-1.121093 1.816406-4.421874 6.035156-10.828124 6.035156s-9.707032-4.21875-10.828126-6.035156c-1.121093-1.816407-3.417968-6.65625-.554687-12.382813l11.382813-22.769531 11.382812 22.769531c2.867188 5.726563.566406 10.566406-.554688 12.382813zm243.015626 155.144531-153.773438-153.773438c-10.203125-10.203125-10.207031-26.804687-.003906-37.011719h.003906c0-.003906 0-.003906.003906-.007812 4.941406-4.9375 11.511719-7.660156 18.503906-7.660156 6.988282 0 13.5625 2.722656 18.503907 7.667968l153.773437 153.773438zm0 0" fill="#91DC5A"/><path d="m424.761719 377.480469c2.929687 2.929687 6.769531 4.394531 10.605469 4.394531 3.839843 0 7.679687-1.464844 10.609374-4.394531 5.855469-5.855469 5.855469-15.355469 0-21.210938l-31.234374-31.230469c-5.855469-5.859374-15.351563-5.859374-21.210938 0-5.859375 5.855469-5.859375 15.355469 0 21.210938zm0 0" fill="#91DC5A"/></svg>
