<?xml version="1.0" encoding="iso-8859-1"?>
<!-- Generator: Adobe Illustrator 19.0.0, SVG Export Plug-In . SVG Version: 6.00 Build 0)  -->
<svg xmlns="http://www.w3.org/2000/svg" xmlns:xlink="http://www.w3.org/1999/xlink" version="1.1" id="Capa_1" x="0px" y="0px" viewBox="0 0 483.312 483.312" style="enable-background:new 0 0 483.312 483.312;" xml:space="preserve" width="512px" height="512px">
<g>
	<g>
		<path d="M433.656,387.312h-32.984l-39.016-296.52V3.312h-16v88l38.88,296h-30.88v16h32v32c0,26.51,21.49,48,48,48    c26.51,0,48-21.49,48-48C481.656,408.802,460.166,387.312,433.656,387.312z M433.656,467.312c-17.673,0-32-14.327-32-32    c0-17.673,14.327-32,32-32c17.673,0,32,14.327,32,32C465.656,452.985,451.329,467.312,433.656,467.312z" fill="#91DC5A"/>
	</g>
</g>
<g>
	<g>
		<path d="M345.656,3.312h-16v87.48l-39.016,296.52h-32.984c-26.51,0-48,21.49-48,48c0,26.51,21.49,48,48,48c26.51,0,48-21.49,48-48    v-32h32v-16h-30.88L345.584,92.36L345.656,3.312z M257.656,467.312c-17.673,0-32-14.327-32-32c0-17.673,14.327-32,32-32    c17.673,0,32,14.327,32,32C289.656,452.985,275.329,467.312,257.656,467.312z" fill="#91DC5A"/>
	</g>
</g>
<g>
	<g>
		<path d="M177.656,179.312V0L164,13.656c-22.062,21.941-34.429,51.797-34.344,82.912v50.744h32v32h-16v304h48v-304H177.656z     M145.656,131.312V96.568c-0.051-19.393,5.506-38.388,16-54.696v89.44H145.656z M177.656,467.312h-16v-272h16V467.312z" fill="#91DC5A"/>
	</g>
</g>
<g>
	<g>
		<path d="M278.456,104.52c-3.191-9.597-4.812-19.646-4.8-29.76V3.312l-48,36v35.432c0.012,10.114-1.609,20.163-4.8,29.76    c-7.475,22.598-7.475,47.002,0,69.6c3.193,9.602,4.813,19.657,4.8,29.776v167.432h48V203.88c-0.012-10.114,1.609-20.163,4.8-29.76    C285.931,151.522,285.931,127.118,278.456,104.52z M263.304,169.072c-3.743,11.223-5.65,22.977-5.648,34.808v151.432h-16V203.88    c0.004-11.836-1.903-23.596-5.648-34.824c-6.394-19.317-6.394-40.179,0-59.496c3.744-11.226,5.651-22.982,5.648-34.816V47.312    l16-12v39.432c-0.004,11.836,1.903,23.596,5.648,34.824C269.699,128.887,269.699,149.753,263.304,169.072z" fill="#91DC5A"/>
	</g>
</g>
<g>
	<g>
		<path d="M421.048,7.44l-37.44,24.96l34.048,76.608v262.304h48V105.576L421.048,7.44z M449.656,355.312h-16v-48h16V355.312z     M449.656,291.312h-16v-16h16V291.312z M449.656,259.312h-16v-16h16V259.312z M449.656,227.312h-16V105.616l-29.952-67.392    l10.56-7.04l35.392,77.864V227.312z" fill="#91DC5A"/>
	</g>
</g>
<g>
	<g>
		<rect x="241.656" y="115.312" width="16" height="16" fill="#91DC5A"/>
	</g>
</g>
<g>
	<g>
		<rect x="241.656" y="147.312" width="16" height="16" fill="#91DC5A"/>
	</g>
</g>
<g>
	<g>
		<rect x="57.656" y="3.312" width="16" height="144" fill="#91DC5A"/>
	</g>
</g>
<g>
	<g>
		<path d="M25.656,307.312h80c13.255,0,24-10.745,24-24s-10.745-24-24-24h-80c-4.418,0-8-3.582-8-8s3.582-8,8-8h80    c13.255,0,24-10.745,24-24s-10.745-24-24-24h-24c-4.418,0-8-3.582-8-8v-24h-16v24c0,13.255,10.745,24,24,24h24    c4.418,0,8,3.582,8,8s-3.582,8-8,8h-80c-13.255,0-24,10.745-24,24c0,13.255,10.745,24,24,24h80c4.418,0,8,3.582,8,8s-3.582,8-8,8    h-80c-13.255,0-24,10.745-24,24s10.745,24,24,24h80c4.418,0,8,3.582,8,8s-3.582,8-8,8h-80c-13.255,0-24,10.745-24,24    s10.745,24,24,24h80c4.418,0,8,3.582,8,8s-3.582,8-8,8h-80c-13.255,0-24,10.745-24,24s10.745,24,24,24h80c4.418,0,8,3.582,8,8v8    h16v-8c0-13.255-10.745-24-24-24h-80c-4.418,0-8-3.582-8-8s3.582-8,8-8h80c13.255,0,24-10.745,24-24s-10.745-24-24-24h-80    c-4.418,0-8-3.582-8-8s3.582-8,8-8h80c13.255,0,24-10.745,24-24s-10.745-24-24-24h-80c-4.418,0-8-3.582-8-8    S21.238,307.312,25.656,307.312z" fill="#91DC5A"/>
	</g>
</g>
<g>
</g>
<g>
</g>
<g>
</g>
<g>
</g>
<g>
</g>
<g>
</g>
<g>
</g>
<g>
</g>
<g>
</g>
<g>
</g>
<g>
</g>
<g>
</g>
<g>
</g>
<g>
</g>
<g>
</g>
</svg>
